<svg width="75" height="75" viewBox="0 0 75 75" fill="none" xmlns="http://www.w3.org/2000/svg">
<path opacity="0.4" d="M9.66504 29.3887H65.3649" stroke="url(#paint0_linear_3218_17)" stroke-width="4.6875" stroke-linecap="round" stroke-linejoin="round"/>
<path opacity="0.4" fill-rule="evenodd" clip-rule="evenodd" d="M21.2754 41.5933C21.2754 40.2988 22.3247 39.2495 23.6191 39.2495H23.6481C24.9425 39.2495 25.9918 40.2988 25.9918 41.5933C25.9918 42.8877 24.9425 43.937 23.6481 43.937H23.6191C22.3247 43.937 21.2754 42.8877 21.2754 41.5933ZM37.5153 39.2495C36.2209 39.2495 35.1716 40.2988 35.1716 41.5933C35.1716 42.8877 36.2209 43.937 37.5153 43.937H37.5443C38.8387 43.937 39.888 42.8877 39.888 41.5933C39.888 40.2988 38.8387 39.2495 37.5443 39.2495H37.5153ZM51.3825 39.2495C50.0881 39.2495 49.0388 40.2988 49.0388 41.5933C49.0388 42.8877 50.0881 43.937 51.3825 43.937H51.4115C52.7059 43.937 53.7552 42.8877 53.7552 41.5933C53.7552 40.2988 52.7059 39.2495 51.4115 39.2495H51.3825ZM51.3825 51.394C50.0881 51.394 49.0388 52.4433 49.0388 53.7377C49.0388 55.0322 50.0881 56.0815 51.3825 56.0815H51.4115C52.7059 56.0815 53.7552 55.0322 53.7552 53.7377C53.7552 52.4433 52.7059 51.394 51.4115 51.394H51.3825ZM35.1716 53.7377C35.1716 52.4433 36.2209 51.394 37.5153 51.394H37.5443C38.8387 51.394 39.888 52.4433 39.888 53.7377C39.888 55.0322 38.8387 56.0815 37.5443 56.0815H37.5153C36.2209 56.0815 35.1716 55.0322 35.1716 53.7377ZM23.6191 51.394C22.3247 51.394 21.2754 52.4433 21.2754 53.7377C21.2754 55.0322 22.3247 56.0815 23.6191 56.0815H23.6481C24.9425 56.0815 25.9918 55.0322 25.9918 53.7377C25.9918 52.4433 24.9425 51.394 23.6481 51.394H23.6191Z" fill="url(#paint1_linear_3218_17)"/>
<path d="M50.1367 6.25V16.5337" stroke="url(#paint2_linear_3218_17)" stroke-width="4.6875" stroke-linecap="round" stroke-linejoin="round"/>
<path d="M24.8926 6.25V16.5337" stroke="url(#paint3_linear_3218_17)" stroke-width="4.6875" stroke-linecap="round" stroke-linejoin="round"/>
<path fill-rule="evenodd" clip-rule="evenodd" d="M50.7446 11.1846H24.2843C15.1071 11.1846 9.375 16.2969 9.375 25.694V53.9742C9.375 63.5191 15.1071 68.7496 24.2843 68.7496H50.7156C59.9217 68.7496 65.6249 63.6077 65.6249 54.2106V25.694C65.6538 16.2969 59.9507 11.1846 50.7446 11.1846Z" stroke="url(#paint4_linear_3218_17)" stroke-width="4.6875" stroke-linecap="round" stroke-linejoin="round"/>
<defs>
<linearGradient id="paint0_linear_3218_17" x1="9.66504" y1="29.1721" x2="65.3649" y2="29.1721" gradientUnits="userSpaceOnUse">
<stop stop-color="#668BC2"/>
<stop offset="1" stop-color="#5288DA"/>
</linearGradient>
<linearGradient id="paint1_linear_3218_17" x1="21.2754" y1="46.4321" x2="53.7552" y2="46.4321" gradientUnits="userSpaceOnUse">
<stop stop-color="#668BC2"/>
<stop offset="1" stop-color="#5288DA"/>
</linearGradient>
<linearGradient id="paint2_linear_3218_17" x1="48.6892" y1="10.6383" x2="51.5842" y2="10.6383" gradientUnits="userSpaceOnUse">
<stop stop-color="#668BC2"/>
<stop offset="1" stop-color="#5288DA"/>
</linearGradient>
<linearGradient id="paint3_linear_3218_17" x1="23.4451" y1="10.6383" x2="26.3401" y2="10.6383" gradientUnits="userSpaceOnUse">
<stop stop-color="#668BC2"/>
<stop offset="1" stop-color="#5288DA"/>
</linearGradient>
<linearGradient id="paint4_linear_3218_17" x1="9.375" y1="35.749" x2="65.625" y2="35.749" gradientUnits="userSpaceOnUse">
<stop stop-color="#668BC2"/>
<stop offset="1" stop-color="#5288DA"/>
</linearGradient>
</defs>
</svg>
