<svg width="75" height="75" viewBox="0 0 75 75" fill="none" xmlns="http://www.w3.org/2000/svg">
<path opacity="0.4" d="M54.9834 34.1621C59.9907 34.1621 64.0527 30.103 64.0527 25.0957C64.0527 20.0884 59.9907 16.0293 54.9834 16.0293" stroke="url(#paint0_linear_3218_58)" stroke-width="4.6875" stroke-linecap="round" stroke-linejoin="round"/>
<path d="M59.1523 44.0156C60.6477 44.1187 62.1344 44.3307 63.5982 44.6602C65.632 45.0583 68.0784 45.8919 68.9492 47.7167C69.5049 48.8854 69.5049 50.2461 68.9492 51.4177C68.0813 53.2424 65.632 54.0732 63.5982 54.4914" stroke="url(#paint1_linear_3218_58)" stroke-width="4.6875" stroke-linecap="round" stroke-linejoin="round"/>
<path opacity="0.4" d="M19.6557 34.1621C14.6484 34.1621 10.5864 30.103 10.5864 25.0957C10.5864 20.0884 14.6484 16.0293 19.6557 16.0293" stroke="url(#paint2_linear_3218_58)" stroke-width="4.6875" stroke-linecap="round" stroke-linejoin="round"/>
<path d="M15.4864 44.0156C13.9911 44.1187 12.5044 44.3307 11.0406 44.6602C9.00671 45.0583 6.56035 45.8919 5.69238 47.7167C5.13379 48.8854 5.13379 50.2461 5.69238 51.4177C6.55749 53.2424 9.00671 54.0732 11.0406 54.4914" stroke="url(#paint3_linear_3218_58)" stroke-width="4.6875" stroke-linecap="round" stroke-linejoin="round"/>
<path fill-rule="evenodd" clip-rule="evenodd" d="M37.3053 45.9673C47.4517 45.9673 56.1199 47.5027 56.1199 53.6472C56.1199 59.7889 47.509 61.3816 37.3053 61.3816C27.1561 61.3816 18.4907 59.8462 18.4907 53.7017C18.4907 47.5571 27.1017 45.9673 37.3053 45.9673Z" stroke="url(#paint4_linear_3218_58)" stroke-width="4.6875" stroke-linecap="round" stroke-linejoin="round"/>
<path opacity="0.4" fill-rule="evenodd" clip-rule="evenodd" d="M37.3058 37.2029C30.6141 37.2029 25.2488 31.8375 25.2488 25.143C25.2488 18.4513 30.6141 13.0859 37.3058 13.0859C43.9975 13.0859 49.3628 18.4513 49.3628 25.143C49.3628 31.8375 43.9975 37.2029 37.3058 37.2029Z" stroke="url(#paint5_linear_3218_58)" stroke-width="4.6875" stroke-linecap="round" stroke-linejoin="round"/>
<defs>
<linearGradient id="paint0_linear_3218_58" x1="54.9834" y1="23.767" x2="64.0527" y2="23.767" gradientUnits="userSpaceOnUse">
<stop stop-color="#668BC2"/>
<stop offset="1" stop-color="#5288DA"/>
</linearGradient>
<linearGradient id="paint1_linear_3218_58" x1="59.1523" y1="48.4859" x2="69.366" y2="48.4859" gradientUnits="userSpaceOnUse">
<stop stop-color="#668BC2"/>
<stop offset="1" stop-color="#5288DA"/>
</linearGradient>
<linearGradient id="paint2_linear_3218_58" x1="10.5864" y1="23.767" x2="19.6557" y2="23.767" gradientUnits="userSpaceOnUse">
<stop stop-color="#668BC2"/>
<stop offset="1" stop-color="#5288DA"/>
</linearGradient>
<linearGradient id="paint3_linear_3218_58" x1="5.27344" y1="48.4859" x2="15.4864" y2="48.4859" gradientUnits="userSpaceOnUse">
<stop stop-color="#668BC2"/>
<stop offset="1" stop-color="#5288DA"/>
</linearGradient>
<linearGradient id="paint4_linear_3218_58" x1="18.4907" y1="52.545" x2="56.1199" y2="52.545" gradientUnits="userSpaceOnUse">
<stop stop-color="#668BC2"/>
<stop offset="1" stop-color="#5288DA"/>
</linearGradient>
<linearGradient id="paint5_linear_3218_58" x1="25.2488" y1="23.3772" x2="49.3628" y2="23.3772" gradientUnits="userSpaceOnUse">
<stop stop-color="#668BC2"/>
<stop offset="1" stop-color="#5288DA"/>
</linearGradient>
</defs>
</svg>
