<svg width="20" height="16" viewBox="0 0 20 16" fill="none" xmlns="http://www.w3.org/2000/svg">
<path d="M18.125 0.5H1.875C0.820312 0.5 0 1.35938 0 2.375V13.625C0 14.6797 0.820312 15.5 1.875 15.5H18.125C19.1406 15.5 20 14.6797 20 13.625V2.375C20 1.35938 19.1406 0.5 18.125 0.5ZM18.125 2.375V3.97656C17.2266 4.71875 15.8203 5.8125 12.8516 8.15625C12.1875 8.66406 10.8984 9.91406 10 9.875C9.0625 9.91406 7.77344 8.66406 7.10938 8.15625C4.14062 5.8125 2.73438 4.71875 1.875 3.97656V2.375H18.125ZM1.875 13.625V6.39844C2.73438 7.10156 4.02344 8.11719 5.9375 9.64062C6.79688 10.3047 8.32031 11.7891 10 11.75C11.6406 11.7891 13.125 10.3047 14.0234 9.64062C15.9375 8.11719 17.2266 7.10156 18.125 6.39844V13.625H1.875Z" fill="#CECECE"/>
</svg>
