<svg width="21" height="16" viewBox="0 0 21 16" fill="none" xmlns="http://www.w3.org/2000/svg">
<path d="M17.7357 0.510112C18.0986 0.179306 18.5815 -0.00357696 19.0825 5.30217e-05C19.5836 0.00368301 20.0635 0.193543 20.4212 0.529569C20.7788 0.865595 20.9861 1.3215 20.9993 1.8011C21.0126 2.28069 20.8307 2.74645 20.4921 3.1001L10.2135 15.4087C10.0367 15.591 9.82343 15.7373 9.58629 15.8388C9.34916 15.9404 9.09307 15.9951 8.83335 15.9997C8.57363 16.0043 8.3156 15.9587 8.0747 15.8656C7.8338 15.7726 7.61497 15.634 7.4313 15.4581L0.614937 8.93128C0.425112 8.76192 0.272859 8.55768 0.16726 8.33075C0.0616603 8.10382 0.00487786 7.85884 0.000300682 7.61044C-0.0042765 7.36204 0.0434455 7.11531 0.140619 6.88495C0.237792 6.65459 0.382426 6.44534 0.565893 6.26967C0.74936 6.09399 0.9679 5.9555 1.20848 5.86246C1.44905 5.76941 1.70674 5.72372 1.96616 5.7281C2.22558 5.73248 2.48142 5.78685 2.71842 5.88797C2.95542 5.98908 3.16872 6.13487 3.3456 6.31663L8.73996 11.4793L17.6868 0.564379C17.7029 0.545388 17.7201 0.527271 17.7383 0.510112H17.7357Z" fill="#CBE0FF"/>
</svg>
