<svg width="20" height="20" viewBox="0 0 20 20" fill="none" xmlns="http://www.w3.org/2000/svg">
<g opacity="0.5">
<path d="M13.4766 11.875C12.3438 11.875 11.8359 12.5 10 12.5C8.125 12.5 7.61719 11.875 6.48438 11.875C3.59375 11.875 1.25 14.2578 1.25 17.1484V18.125C1.25 19.1797 2.07031 20 3.125 20H16.875C17.8906 20 18.75 19.1797 18.75 18.125V17.1484C18.75 14.2578 16.3672 11.875 13.4766 11.875ZM16.875 18.125H3.125V17.1484C3.125 15.2734 4.60938 13.75 6.48438 13.75C7.07031 13.75 7.96875 14.375 10 14.375C11.9922 14.375 12.8906 13.75 13.4766 13.75C15.3516 13.75 16.875 15.2734 16.875 17.1484V18.125ZM10 11.25C13.0859 11.25 15.625 8.75 15.625 5.625C15.625 2.53906 13.0859 0 10 0C6.875 0 4.375 2.53906 4.375 5.625C4.375 8.75 6.875 11.25 10 11.25ZM10 1.875C12.0312 1.875 13.75 3.59375 13.75 5.625C13.75 7.69531 12.0312 9.375 10 9.375C7.92969 9.375 6.25 7.69531 6.25 5.625C6.25 3.59375 7.92969 1.875 10 1.875Z" fill="#BDBDBD"/>
</g>
</svg>
