<svg width="304" height="161" viewBox="0 0 304 161" fill="none" xmlns="http://www.w3.org/2000/svg">
<g filter="url(#filter0_d_620_1519)">
<rect x="48" y="36" width="208" height="72" rx="36" stroke="white" stroke-opacity="0.6" stroke-width="4" shape-rendering="crispEdges"/>
</g>
<rect x="28" y="18" width="248" height="108" rx="54" stroke="white" stroke-opacity="0.1" stroke-width="2"/>
<rect x="1" y="1" width="302" height="142" rx="71" stroke="white" stroke-opacity="0.1" stroke-width="2"/>
<path d="M105.384 79.147C104.404 79.147 103.522 78.979 102.738 78.643C101.954 78.293 101.338 77.803 100.89 77.173C100.442 76.543 100.218 75.808 100.218 74.968H102.78C102.836 75.598 103.081 76.116 103.515 76.522C103.963 76.928 104.586 77.131 105.384 77.131C106.21 77.131 106.854 76.935 107.316 76.543C107.778 76.137 108.009 75.619 108.009 74.989C108.009 74.499 107.862 74.1 107.568 73.792C107.288 73.484 106.931 73.246 106.497 73.078C106.077 72.91 105.489 72.728 104.733 72.532C103.781 72.28 103.004 72.028 102.402 71.776C101.814 71.51 101.31 71.104 100.89 70.558C100.47 70.012 100.26 69.284 100.26 68.374C100.26 67.534 100.47 66.799 100.89 66.169C101.31 65.539 101.898 65.056 102.654 64.72C103.41 64.384 104.285 64.216 105.279 64.216C106.693 64.216 107.848 64.573 108.744 65.287C109.654 65.987 110.158 66.953 110.256 68.185H107.61C107.568 67.653 107.316 67.198 106.854 66.82C106.392 66.442 105.783 66.253 105.027 66.253C104.341 66.253 103.781 66.428 103.347 66.778C102.913 67.128 102.696 67.632 102.696 68.29C102.696 68.738 102.829 69.109 103.095 69.403C103.375 69.683 103.725 69.907 104.145 70.075C104.565 70.243 105.139 70.425 105.867 70.621C106.833 70.887 107.617 71.153 108.219 71.419C108.835 71.685 109.353 72.098 109.773 72.658C110.207 73.204 110.424 73.939 110.424 74.863C110.424 75.605 110.221 76.305 109.815 76.963C109.423 77.621 108.842 78.153 108.072 78.559C107.316 78.951 106.42 79.147 105.384 79.147ZM123.854 72.931C123.854 73.365 123.826 73.757 123.77 74.107H114.929C114.999 75.031 115.342 75.773 115.958 76.333C116.574 76.893 117.33 77.173 118.226 77.173C119.514 77.173 120.424 76.634 120.956 75.556H123.539C123.189 76.62 122.552 77.495 121.628 78.181C120.718 78.853 119.584 79.189 118.226 79.189C117.12 79.189 116.126 78.944 115.244 78.454C114.376 77.95 113.69 77.25 113.186 76.354C112.696 75.444 112.451 74.394 112.451 73.204C112.451 72.014 112.689 70.971 113.165 70.075C113.655 69.165 114.334 68.465 115.202 67.975C116.084 67.485 117.092 67.24 118.226 67.24C119.318 67.24 120.291 67.478 121.145 67.954C121.999 68.43 122.664 69.102 123.14 69.97C123.616 70.824 123.854 71.811 123.854 72.931ZM121.355 72.175C121.341 71.293 121.026 70.586 120.41 70.054C119.794 69.522 119.031 69.256 118.121 69.256C117.295 69.256 116.588 69.522 116 70.054C115.412 70.572 115.062 71.279 114.95 72.175H121.355ZM132.048 67.24C132.958 67.24 133.77 67.429 134.484 67.807C135.212 68.185 135.779 68.745 136.185 69.487C136.591 70.229 136.794 71.125 136.794 72.175V79H134.421V72.532C134.421 71.496 134.162 70.705 133.644 70.159C133.126 69.599 132.419 69.319 131.523 69.319C130.627 69.319 129.913 69.599 129.381 70.159C128.863 70.705 128.604 71.496 128.604 72.532V79H126.21V67.429H128.604V68.752C128.996 68.276 129.493 67.905 130.095 67.639C130.711 67.373 131.362 67.24 132.048 67.24ZM139.049 73.162C139.049 72 139.287 70.971 139.763 70.075C140.253 69.179 140.911 68.486 141.737 67.996C142.577 67.492 143.508 67.24 144.53 67.24C145.286 67.24 146.028 67.408 146.756 67.744C147.498 68.066 148.086 68.5 148.52 69.046V63.46H150.935V79H148.52V77.257C148.128 77.817 147.582 78.279 146.882 78.643C146.196 79.007 145.405 79.189 144.509 79.189C143.501 79.189 142.577 78.937 141.737 78.433C140.911 77.915 140.253 77.201 139.763 76.291C139.287 75.367 139.049 74.324 139.049 73.162ZM148.52 73.204C148.52 72.406 148.352 71.713 148.016 71.125C147.694 70.537 147.267 70.089 146.735 69.781C146.203 69.473 145.629 69.319 145.013 69.319C144.397 69.319 143.823 69.473 143.291 69.781C142.759 70.075 142.325 70.516 141.989 71.104C141.667 71.678 141.506 72.364 141.506 73.162C141.506 73.96 141.667 74.66 141.989 75.262C142.325 75.864 142.759 76.326 143.291 76.648C143.837 76.956 144.411 77.11 145.013 77.11C145.629 77.11 146.203 76.956 146.735 76.648C147.267 76.34 147.694 75.892 148.016 75.304C148.352 74.702 148.52 74.002 148.52 73.204Z" fill="white" fill-opacity="0.8"/>
<path opacity="0.4" d="M196.572 65.5337L187.068 75.0381" stroke="white" stroke-opacity="0.8" stroke-width="2.44917" stroke-linecap="round" stroke-linejoin="round"/>
<path d="M187.068 75.0389L175.941 68.2352C174.483 67.3437 174.778 65.1443 176.421 64.6692L202.692 57.08C204.186 56.6473 205.568 58.0417 205.12 59.5308L197.325 85.5965C196.837 87.2293 194.648 87.5101 193.763 86.0537L187.068 75.0389" stroke="white" stroke-opacity="0.8" stroke-width="2.44917" stroke-linecap="round" stroke-linejoin="round"/>
<g filter="url(#filter1_d_620_1519)">
<path d="M159 98L172.724 131L177.596 116.655L192 111.724L159 98Z" fill="black"/>
<path d="M159 98L172.724 131L177.596 116.655L192 111.724L159 98Z" stroke="white" stroke-width="3.88235" stroke-linecap="round" stroke-linejoin="round"/>
</g>
<defs>
<filter id="filter0_d_620_1519" x="22" y="14" width="260" height="124" filterUnits="userSpaceOnUse" color-interpolation-filters="sRGB">
<feFlood flood-opacity="0" result="BackgroundImageFix"/>
<feColorMatrix in="SourceAlpha" type="matrix" values="0 0 0 0 0 0 0 0 0 0 0 0 0 0 0 0 0 0 127 0" result="hardAlpha"/>
<feOffset dy="4"/>
<feGaussianBlur stdDeviation="12"/>
<feComposite in2="hardAlpha" operator="out"/>
<feColorMatrix type="matrix" values="0 0 0 0 1 0 0 0 0 1 0 0 0 0 1 0 0 0 0.25 0"/>
<feBlend mode="normal" in2="BackgroundImageFix" result="effect1_dropShadow_620_1519"/>
<feBlend mode="normal" in="SourceGraphic" in2="effect1_dropShadow_620_1519" result="shape"/>
</filter>
<filter id="filter1_d_620_1519" x="143.059" y="96.0586" width="64.8824" height="64.8828" filterUnits="userSpaceOnUse" color-interpolation-filters="sRGB">
<feFlood flood-opacity="0" result="BackgroundImageFix"/>
<feColorMatrix in="SourceAlpha" type="matrix" values="0 0 0 0 0 0 0 0 0 0 0 0 0 0 0 0 0 0 127 0" result="hardAlpha"/>
<feOffset dy="14"/>
<feGaussianBlur stdDeviation="7"/>
<feComposite in2="hardAlpha" operator="out"/>
<feColorMatrix type="matrix" values="0 0 0 0 1 0 0 0 0 1 0 0 0 0 1 0 0 0 0.25 0"/>
<feBlend mode="normal" in2="BackgroundImageFix" result="effect1_dropShadow_620_1519"/>
<feBlend mode="normal" in="SourceGraphic" in2="effect1_dropShadow_620_1519" result="shape"/>
</filter>
</defs>
</svg>
