<svg width="142" height="28" viewBox="0 0 142 28" fill="none" xmlns="http://www.w3.org/2000/svg">
<path d="M12.2862 3.85967C12.5856 2.93836 13.889 2.93836 14.1883 3.85967L15.9847 9.38838C16.1186 9.8004 16.5026 10.0794 16.9358 10.0794H22.749C23.7177 10.0794 24.1205 11.319 23.3368 11.8884L18.6338 15.3053C18.2833 15.5599 18.1367 16.0113 18.2705 16.4233L20.0669 21.952C20.3663 22.8734 19.3118 23.6395 18.5281 23.0701L13.8251 19.6532C13.4746 19.3985 13 19.3985 12.6495 19.6532L7.9465 23.0701C7.16279 23.6395 6.10831 22.8734 6.40766 21.952L8.20405 16.4233C8.33792 16.0113 8.19126 15.5599 7.84078 15.3053L3.13778 11.8884C2.35406 11.319 2.75684 10.0794 3.72556 10.0794H9.53879C9.97202 10.0794 10.356 9.8004 10.4898 9.38838L12.2862 3.85967Z" fill="#F5B657"/>
<path d="M41.1674 3.85967C41.4667 2.93836 42.7702 2.93836 43.0695 3.85967L44.8659 9.38838C44.9998 9.8004 45.3837 10.0794 45.8169 10.0794H51.6302C52.5989 10.0794 53.0017 11.319 52.218 11.8884L47.515 15.3053C47.1645 15.5599 47.0178 16.0113 47.1517 16.4233L48.9481 21.952C49.2474 22.8734 48.1929 23.6395 47.4092 23.0701L42.7062 19.6532C42.3557 19.3985 41.8811 19.3985 41.5307 19.6532L36.8277 23.0701C36.0439 23.6395 34.9895 22.8734 35.2888 21.952L37.0852 16.4233C37.2191 16.0113 37.0724 15.5599 36.7219 15.3053L32.0189 11.8884C31.2352 11.319 31.638 10.0794 32.6067 10.0794H38.4199C38.8532 10.0794 39.2371 9.8004 39.371 9.38838L41.1674 3.85967Z" fill="#F5B657"/>
<path d="M70.0485 3.85967C70.3479 2.93836 71.6513 2.93836 71.9507 3.85967L73.747 9.38838C73.8809 9.8004 74.2649 10.0794 74.6981 10.0794H80.5113C81.4801 10.0794 81.8828 11.319 81.0991 11.8884L76.3961 15.3053C76.0456 15.5599 75.899 16.0113 76.0328 16.4233L77.8292 21.952C78.1286 22.8734 77.0741 23.6395 76.2904 23.0701L71.5874 19.6532C71.2369 19.3985 70.7623 19.3985 70.4118 19.6532L65.7088 23.0701C64.9251 23.6395 63.8706 22.8734 64.17 21.952L65.9664 16.4233C66.1002 16.0113 65.9536 15.5599 65.6031 15.3053L60.9001 11.8884C60.1164 11.319 60.5192 10.0794 61.4879 10.0794H67.3011C67.7343 10.0794 68.1183 9.8004 68.2522 9.38838L70.0485 3.85967Z" fill="#F5B657"/>
<path d="M98.9306 3.85967C99.23 2.93836 100.533 2.93836 100.833 3.85967L102.629 9.38838C102.763 9.8004 103.147 10.0794 103.58 10.0794H109.393C110.362 10.0794 110.765 11.319 109.981 11.8884L105.278 15.3053C104.928 15.5599 104.781 16.0113 104.915 16.4233L106.711 21.952C107.011 22.8734 105.956 23.6395 105.172 23.0701L100.469 19.6532C100.119 19.3985 99.6444 19.3985 99.2939 19.6532L94.5909 23.0701C93.8072 23.6395 92.7527 22.8734 93.052 21.952L94.8484 16.4233C94.9823 16.0113 94.8356 15.5599 94.4852 15.3053L89.7822 11.8884C88.9984 11.319 89.4012 10.0794 90.3699 10.0794H96.1832C96.6164 10.0794 97.0004 9.8004 97.1342 9.38838L98.9306 3.85967Z" fill="#F5B657"/>
<path d="M127.812 3.85967C128.111 2.93836 129.415 2.93836 129.714 3.85967L131.51 9.38838C131.644 9.8004 132.028 10.0794 132.461 10.0794H138.275C139.243 10.0794 139.646 11.319 138.862 11.8884L134.159 15.3053C133.809 15.5599 133.662 16.0113 133.796 16.4233L135.592 21.952C135.892 22.8734 134.837 23.6395 134.054 23.0701L129.351 19.6532C129 19.3985 128.526 19.3985 128.175 19.6532L123.472 23.0701C122.688 23.6395 121.634 22.8734 121.933 21.952L123.73 16.4233C123.863 16.0113 123.717 15.5599 123.366 15.3053L118.663 11.8884C117.88 11.319 118.282 10.0794 119.251 10.0794H125.064C125.498 10.0794 125.882 9.8004 126.015 9.38838L127.812 3.85967Z" fill="#F5B657"/>
</svg>
