<svg width="682" height="39" viewBox="0 0 682 39" fill="none" xmlns="http://www.w3.org/2000/svg">
<path d="M660.102 6.49349V16.7266H658.338L653.749 9.39614V16.7266H651.984V6.49349H653.749L658.352 13.838V6.49349H660.102ZM661.711 13.0086V12.847C661.711 12.2988 661.791 11.7904 661.95 11.3219C662.11 10.8486 662.339 10.4387 662.639 10.0919C662.944 9.74052 663.314 9.46876 663.75 9.27666C664.19 9.07987 664.687 8.98148 665.24 8.98148C665.797 8.98148 666.294 9.07987 666.73 9.27666C667.17 9.46876 667.543 9.74052 667.847 10.0919C668.152 10.4387 668.384 10.8486 668.543 11.3219C668.702 11.7904 668.782 12.2988 668.782 12.847V13.0086C668.782 13.5568 668.702 14.0652 668.543 14.5338C668.384 15.0023 668.152 15.4123 667.847 15.7637C667.543 16.1104 667.172 16.3822 666.737 16.579C666.301 16.7711 665.807 16.8671 665.254 16.8671C664.696 16.8671 664.197 16.7711 663.757 16.579C663.321 16.3822 662.951 16.1104 662.646 15.7637C662.342 15.4123 662.11 15.0023 661.95 14.5338C661.791 14.0652 661.711 13.5568 661.711 13.0086ZM663.405 12.847V13.0086C663.405 13.3507 663.44 13.674 663.511 13.9785C663.581 14.2831 663.691 14.5502 663.841 14.7797C663.991 15.0093 664.183 15.1897 664.417 15.3209C664.652 15.4521 664.93 15.5177 665.254 15.5177C665.568 15.5177 665.839 15.4521 666.069 15.3209C666.303 15.1897 666.495 15.0093 666.645 14.7797C666.795 14.5502 666.905 14.2831 666.976 13.9785C667.051 13.674 667.088 13.3507 667.088 13.0086V12.847C667.088 12.5096 667.051 12.191 666.976 11.8912C666.905 11.5866 666.793 11.3172 666.638 11.0829C666.488 10.8486 666.296 10.6659 666.062 10.5347C665.832 10.3988 665.558 10.3309 665.24 10.3309C664.921 10.3309 664.645 10.3988 664.41 10.5347C664.181 10.6659 663.991 10.8486 663.841 11.0829C663.691 11.3172 663.581 11.5866 663.511 11.8912C663.44 12.191 663.405 12.5096 663.405 12.847ZM672.268 15.0398L674.025 9.12204H675.107L674.812 10.8931L673.041 16.7266H672.071L672.268 15.0398ZM671.235 9.12204L672.605 15.0679L672.718 16.7266H671.635L669.576 9.12204H671.235ZM676.752 14.9976L678.08 9.12204H679.732L677.68 16.7266H676.597L676.752 14.9976ZM675.29 9.12204L677.026 14.9695L677.244 16.7266H676.274L674.482 10.8861L674.187 9.12204H675.29Z" fill="#C86B6B"/>
<path d="M5.29175 29.8145H680" stroke="#C86B6B" stroke-width="2.64591" stroke-linecap="round"/>
<circle cx="8.81971" cy="29.3734" r="8.81971" fill="#C86B6B"/>
</svg>
